<?xml version="1.0" encoding="utf-8"?>
<!-- Generator: Adobe Illustrator 23.0.1, SVG Export Plug-In . SVG Version: 6.00 Build 0)  -->
<svg version="1.1" id="Layer_1" xmlns="http://www.w3.org/2000/svg" xmlns:xlink="http://www.w3.org/1999/xlink" x="0px" y="0px"
	 viewBox="0 0 1080 1080" style="enable-background:new 0 0 1080 1080;" xml:space="preserve">
<style type="text/css">
	.st0{fill:#39B54A;}
	.st1{clip-path:url(#SVGID_2_);}
	.st2{fill:#3A3A3A;}
</style>
<g>
	<g>
		<polygon class="st0" points="436,358.1 436,706.8 351.2,706.8 132.5,446.6 132.5,719.1 448.6,719.1 448.6,358.1 		"/>
		<polygon class="st0" points="67.7,370.7 152.6,370.7 371.3,630.8 371.3,358.1 55.2,358.1 55.2,719.1 67.7,719.1 		"/>
		<g>
			<defs>
				<polygon id="SVGID_1_" points="159.4,358.3 358.7,596.8 358.7,358.1 				"/>
			</defs>
			<clipPath id="SVGID_2_">
				<use xlink:href="#SVGID_1_"  style="overflow:visible;"/>
			</clipPath>
			<g class="st1">
				<rect x="69.3" y="358.3" class="st0" width="368.4" height="361.1"/>
				
					<image style="overflow:visible;" width="851" height="1005" xlink:href="12D9E7A9.png"  transform="matrix(0.24 0 0 0.24 159.12 358.08)">
				</image>
			</g>
		</g>
	</g>
	<path class="st2" d="M537.5,721.9c-4.5,0-8.9-0.7-13.1-2.2c-4.3-1.5-7.9-3.6-11-6.4l3.4-5.1c3.2,2.6,6.5,4.6,9.9,6
		c3.3,1.3,6.9,2,10.8,2c4.6,0,8.3-0.9,11.1-2.8c2.8-1.9,4.1-4.5,4.1-8c0-1.6-0.4-3-1.1-4c-0.7-1.1-1.8-2-3.3-2.8
		c-1.4-0.8-3.2-1.5-5.4-2.2c-2.2-0.6-4.7-1.3-7.6-1.9c-3.3-0.8-6.2-1.6-8.6-2.4c-2.4-0.8-4.4-1.7-6-2.8c-1.6-1-2.8-2.3-3.5-3.8
		c-0.8-1.5-1.2-3.4-1.2-5.7c0-2.9,0.6-5.4,1.7-7.6c1.1-2.2,2.7-4,4.6-5.5c1.9-1.4,4.2-2.5,6.8-3.3c2.6-0.7,5.4-1.1,8.3-1.1
		c4.4,0,8.4,0.7,12,2.1c3.6,1.4,6.5,3.3,8.7,5.7l-3.6,4.4c-2.1-2.2-4.7-3.9-7.8-5c-3.1-1.1-6.2-1.7-9.5-1.7c-2,0-3.8,0.2-5.5,0.6
		c-1.7,0.4-3.2,1-4.5,1.9c-1.3,0.9-2.3,2-3,3.4c-0.7,1.4-1.1,3-1.1,4.8c0,1.5,0.3,2.8,0.8,3.8c0.5,1,1.4,1.8,2.5,2.5
		c1.2,0.7,2.7,1.3,4.5,1.9c1.8,0.6,4,1.1,6.6,1.7c3.7,0.9,6.9,1.8,9.7,2.6c2.8,0.9,5.1,1.9,7,3.1c1.9,1.2,3.3,2.6,4.2,4.3
		c1,1.7,1.4,3.7,1.4,6.2c0,5.3-2,9.5-6.1,12.6C549.7,720.3,544.3,721.9,537.5,721.9z"/>
	<path class="st2" d="M611.2,721.9c-4.2,0-8-0.8-11.5-2.4c-3.5-1.6-6.5-3.7-9.1-6.5c-2.6-2.8-4.6-5.9-6-9.5
		c-1.4-3.6-2.2-7.5-2.2-11.6c0-4,0.7-7.8,2.2-11.4c1.4-3.6,3.4-6.7,6-9.4c2.5-2.7,5.6-4.8,9.1-6.4c3.5-1.6,7.3-2.4,11.5-2.4
		c4.2,0,8,0.8,11.5,2.4c3.5,1.6,6.5,3.7,9,6.5c2.5,2.7,4.4,5.8,5.8,9.4c1.4,3.5,2.1,7.3,2.1,11.2c0,0.6,0,1.2,0,1.8s0,1-0.1,1.2
		h-49.2c0.2,3.1,0.9,5.9,2.2,8.5c1.2,2.6,2.8,4.9,4.7,6.8c1.9,1.9,4.1,3.4,6.6,4.5c2.5,1.1,5.1,1.6,7.9,1.6c1.8,0,3.7-0.3,5.5-0.8
		c1.8-0.5,3.5-1.2,5.1-2.1c1.5-0.9,2.9-2,4.2-3.3c1.2-1.3,2.2-2.7,2.9-4.2l6.5,1.8c-0.9,2.1-2.1,4.1-3.8,5.8
		c-1.6,1.7-3.5,3.2-5.6,4.5c-2.1,1.3-4.5,2.3-7.1,3C616.7,721.5,614,721.9,611.2,721.9z M632.4,689c-0.2-3.1-0.9-5.9-2.1-8.4
		c-1.2-2.5-2.8-4.7-4.6-6.6s-4-3.3-6.5-4.3c-2.5-1-5.1-1.5-7.9-1.5c-2.8,0-5.4,0.5-7.9,1.5c-2.5,1-4.7,2.5-6.6,4.3s-3.4,4-4.5,6.6
		c-1.1,2.6-1.8,5.4-2,8.4H632.4z"/>
	<path class="st2" d="M694.1,669.9c-5.1,0.1-9.5,1.5-13.2,4.2c-3.8,2.6-6.4,6.3-7.9,10.9v35.7h-7.5v-50.4l7.1-7v13.8
		c2.1-4.4,5-7.9,8.6-10.4s7.5-3.8,11.6-3.8c0.6,0,1.1,0,1.4,0.1V669.9z"/>
	<path class="st2" d="M735.7,720.8l-21.2-52l5.5-5.5l19.7,50.5l19.8-50.5h7.3l-23.4,57.4H735.7z"/>
	<path class="st2" d="M791.6,720.8v-49.9l7.5-7.5v57.4H791.6z"/>
	<path class="st2" d="M826,691.9c0-4,0.7-7.9,2.1-11.5c1.4-3.6,3.4-6.7,5.9-9.4c2.5-2.7,5.6-4.8,9.1-6.3c3.5-1.5,7.4-2.3,11.7-2.3
		c5.4,0,10.2,1.2,14.2,3.7s7.1,5.8,9.2,10l-7.3,2.3c-1.6-2.9-3.9-5.2-6.8-6.9c-2.9-1.7-6.1-2.5-9.6-2.5c-2.9,0-5.7,0.6-8.2,1.8
		c-2.5,1.2-4.7,2.8-6.6,4.8c-1.9,2-3.3,4.4-4.4,7.2c-1.1,2.8-1.6,5.8-1.6,9.2c0,3.2,0.6,6.3,1.7,9.2s2.6,5.3,4.5,7.4
		c1.9,2.1,4.1,3.7,6.7,5c2.5,1.2,5.2,1.8,8.1,1.8c1.8,0,3.7-0.3,5.5-0.8c1.8-0.5,3.5-1.2,5-2.1s2.9-2,4-3.1c1.1-1.2,1.9-2.4,2.3-3.8
		l7.4,2.2c-0.8,2.1-2,4-3.5,5.7c-1.5,1.7-3.4,3.2-5.5,4.5s-4.4,2.3-6.9,3c-2.5,0.7-5.2,1-7.9,1c-4.2,0-8-0.8-11.6-2.4
		c-3.5-1.6-6.6-3.7-9.2-6.5c-2.6-2.8-4.6-5.9-6-9.5C826.7,699.9,826,696,826,691.9z"/>
	<path class="st2" d="M929.1,721.9c-4.2,0-8-0.8-11.5-2.4c-3.5-1.6-6.5-3.7-9.1-6.5c-2.6-2.8-4.6-5.9-6-9.5
		c-1.4-3.6-2.2-7.5-2.2-11.6c0-4,0.7-7.8,2.2-11.4c1.4-3.6,3.4-6.7,6-9.4c2.5-2.7,5.6-4.8,9.1-6.4c3.5-1.6,7.3-2.4,11.5-2.4
		c4.2,0,8,0.8,11.5,2.4c3.5,1.6,6.5,3.7,9,6.5c2.5,2.7,4.4,5.8,5.8,9.4c1.4,3.5,2.1,7.3,2.1,11.2c0,0.6,0,1.2,0,1.8s0,1-0.1,1.2
		h-49.2c0.2,3.1,0.9,5.9,2.2,8.5c1.2,2.6,2.8,4.9,4.7,6.8s4.1,3.4,6.6,4.5c2.5,1.1,5.1,1.6,7.9,1.6c1.8,0,3.7-0.3,5.5-0.8
		c1.8-0.5,3.5-1.2,5.1-2.1c1.5-0.9,2.9-2,4.2-3.3c1.2-1.3,2.2-2.7,2.9-4.2l6.5,1.8c-0.9,2.1-2.1,4.1-3.8,5.8
		c-1.6,1.7-3.5,3.2-5.6,4.5c-2.1,1.3-4.5,2.3-7.1,3C934.6,721.5,931.9,721.9,929.1,721.9z M950.3,689c-0.2-3.1-0.9-5.9-2.1-8.4
		c-1.2-2.5-2.8-4.7-4.6-6.6s-4-3.3-6.5-4.3c-2.5-1-5.1-1.5-7.9-1.5c-2.8,0-5.4,0.5-7.9,1.5c-2.5,1-4.7,2.5-6.6,4.3s-3.4,4-4.5,6.6
		c-1.1,2.6-1.8,5.4-2,8.4H950.3z"/>
	<path class="st2" d="M1002.5,721.9c-4.5,0-8.9-0.7-13.1-2.2c-4.3-1.5-7.9-3.6-11-6.4l3.4-5.1c3.2,2.6,6.5,4.6,9.9,6
		c3.3,1.3,6.9,2,10.8,2c4.6,0,8.3-0.9,11.1-2.8c2.8-1.9,4.1-4.5,4.1-8c0-1.6-0.4-3-1.1-4c-0.7-1.1-1.8-2-3.3-2.8
		c-1.4-0.8-3.2-1.5-5.4-2.2c-2.2-0.6-4.7-1.3-7.6-1.9c-3.3-0.8-6.2-1.6-8.6-2.4c-2.4-0.8-4.4-1.7-6-2.8c-1.6-1-2.8-2.3-3.5-3.8
		c-0.8-1.5-1.2-3.4-1.2-5.7c0-2.9,0.6-5.4,1.7-7.6s2.7-4,4.6-5.5c1.9-1.4,4.2-2.5,6.8-3.3c2.6-0.7,5.4-1.1,8.3-1.1
		c4.4,0,8.4,0.7,12,2.1c3.6,1.4,6.5,3.3,8.7,5.7l-3.6,4.4c-2.1-2.2-4.7-3.9-7.8-5c-3.1-1.1-6.2-1.7-9.5-1.7c-2,0-3.8,0.2-5.5,0.6
		c-1.7,0.4-3.2,1-4.5,1.9c-1.3,0.9-2.3,2-3,3.4c-0.7,1.4-1.1,3-1.1,4.8c0,1.5,0.3,2.8,0.8,3.8c0.5,1,1.4,1.8,2.5,2.5
		c1.2,0.7,2.7,1.3,4.5,1.9c1.8,0.6,4,1.1,6.6,1.7c3.7,0.9,6.9,1.8,9.7,2.6c2.8,0.9,5.1,1.9,7,3.1c1.9,1.2,3.3,2.6,4.2,4.3
		c1,1.7,1.4,3.7,1.4,6.2c0,5.3-2,9.5-6.1,12.6C1014.7,720.3,1009.3,721.9,1002.5,721.9z"/>
	<path class="st2" d="M641.9,468h-54.3v139.7h-20V468h-54.3l17.7-17.7h110.9V468z"/>
	<path class="st2" d="M699.1,609.9c-8.7,0-16.7-1.6-24-4.8c-7.2-3.2-13.5-7.5-18.6-13c-5.2-5.5-9.2-11.9-12.1-19.2
		c-2.9-7.3-4.3-15-4.3-23.2c0-8.1,1.4-15.8,4.3-23.1c2.9-7.2,6.9-13.6,12.2-19.1c5.2-5.5,11.5-9.8,18.7-13
		c7.2-3.2,15.2-4.8,23.9-4.8c8.7,0,16.7,1.6,23.8,4.9c7.2,3.3,13.3,7.6,18.3,13c5,5.4,8.9,11.7,11.6,18.8c2.7,7.2,4.1,14.6,4.1,22.3
		c0,1.6,0,3.1-0.1,4.4c-0.1,1.3-0.2,2.4-0.3,3.1h-96c0.4,5.8,1.8,11,4,15.7c2.2,4.7,5.1,8.8,8.6,12.2c3.6,3.4,7.6,6.1,12.1,8
		c4.5,1.9,9.3,2.9,14.3,2.9c3.6,0,7-0.5,10.4-1.4c3.4-1,6.6-2.3,9.5-3.9c3-1.6,5.6-3.6,7.9-6c2.3-2.4,4-5,5.2-8l16.9,4.7
		c-1.9,4.3-4.5,8.2-7.9,11.8c-3.3,3.5-7.2,6.6-11.5,9.2c-4.4,2.6-9.2,4.6-14.5,6.1C710.4,609.2,704.9,609.9,699.1,609.9z M738.8,542
		c-0.4-5.5-1.8-10.5-4.1-15.2c-2.3-4.7-5.2-8.6-8.6-11.9c-3.5-3.2-7.5-5.8-12.1-7.7c-4.6-1.8-9.5-2.8-14.6-2.8s-10.1,0.9-14.6,2.8
		c-4.6,1.9-8.6,4.4-12.1,7.8c-3.5,3.3-6.3,7.3-8.4,11.9c-2.1,4.6-3.4,9.6-3.9,15.1H738.8z"/>
	<path class="st2" d="M782.3,549.6c0-8.1,1.4-15.8,4.2-23.1c2.8-7.2,6.8-13.6,12-19c5.2-5.4,11.3-9.7,18.5-12.9
		c7.2-3.2,15.2-4.8,24.1-4.8c11.5,0,21.5,2.5,29.8,7.7c8.4,5.1,14.7,11.9,19,20.5l-19.1,6c-3-5.5-7.1-9.7-12.4-12.7
		c-5.3-3-11.2-4.5-17.7-4.5c-5.3,0-10.3,1.1-15.1,3.2c-4.7,2.1-8.8,5.1-12.2,9c-3.4,3.8-6.1,8.4-8.1,13.5c-2,5.2-3,10.9-3,17.1
		c0,6.1,1,11.8,3.1,17.1s4.8,9.9,8.3,13.9s7.5,7,12.2,9.2c4.7,2.2,9.6,3.3,15,3.3c3.4,0,6.8-0.5,10.1-1.4c3.3-1,6.4-2.3,9.1-3.9
		c2.7-1.6,5.1-3.5,7.2-5.7c2.1-2.1,3.5-4.5,4.4-7l19.1,5.8c-1.8,4.3-4.3,8.2-7.4,11.8c-3.2,3.5-6.9,6.6-11.2,9.1
		c-4.3,2.5-9.1,4.5-14.3,6c-5.3,1.5-10.8,2.2-16.5,2.2c-8.7,0-16.7-1.6-24-4.9c-7.2-3.2-13.5-7.6-18.6-13.1
		c-5.2-5.5-9.2-11.9-12.1-19.2C783.7,565.4,782.3,557.7,782.3,549.6z"/>
	<path class="st2" d="M1024.4,607.7h-19.5v-64.7c0-12-2.1-20.9-6.2-26.7c-4.1-5.8-10.2-8.8-18.2-8.8c-3.8,0-7.7,0.8-11.5,2.3
		c-3.8,1.6-7.4,3.7-10.8,6.3c-3.3,2.7-6.3,5.8-8.9,9.5c-2.6,3.7-4.5,7.8-5.9,12.2v69.8H924V465.3l19.5-19.5v71
		c4.6-8.4,10.8-15,18.6-19.7c7.8-4.7,16.4-7.1,25.7-7.1c6.8,0,12.6,1.3,17.3,3.8c4.7,2.5,8.5,5.9,11.3,10.2
		c2.8,4.3,4.8,9.4,6.1,15.4c1.3,6,1.9,12.4,1.9,19.2V607.7z"/>
</g>
</svg>
